<svg width="218" height="20" xmlns="http://www.w3.org/2000/svg"><path d="M.303.505h7.369c3.028 0 4.946 1.716 4.946 4.542 0 2.22-1.515 3.836-3.13 4.138 1.918.303 3.533 2.322 3.533 4.442 0 3.029-1.918 4.845-5.147 4.845H.303V.504v.001zM7.47 8.58c2.321 0 3.533-1.413 3.533-3.33 0-1.818-1.212-3.332-3.533-3.332H1.817V8.58H7.47zm.1 8.479c2.322 0 3.735-1.413 3.735-3.533 0-1.817-1.312-3.533-3.734-3.533H1.817v7.066H7.57zM25.035.202c5.248 0 8.68 4.038 8.68 9.286 0 5.25-3.432 9.287-8.681 9.287-5.249 0-8.68-4.037-8.68-9.287 0-5.248 3.431-9.286 8.68-9.286zm0 1.413c-4.341 0-7.067 3.33-7.067 7.873s2.726 7.874 7.067 7.874c4.34 0 7.066-3.33 7.066-7.874 0-4.542-2.726-7.873-7.066-7.873zM37.853.505h1.514v11.002c0 3.634 1.918 5.855 5.45 5.855 3.534 0 5.452-2.22 5.452-5.855V.505h1.514v11.002c0 4.442-2.322 7.167-6.965 7.167-4.542 0-6.965-2.826-6.965-7.167V.505zM64.905.202c2.928 0 5.148 1.211 6.764 3.028l-1.111.808a7.392 7.392 0 0 0-5.552-2.524c-4.239 0-7.47 3.23-7.47 7.873 0 4.644 3.231 7.874 7.47 7.874 2.423 0 4.24-1.211 5.249-2.22v-4.342h-6.762V9.59h8.177v6.26c-1.616 1.816-3.938 3.027-6.764 3.027-5.047 0-9.085-3.735-9.085-9.287 0-5.652 4.038-9.387 9.085-9.387zm23.823 9.69H77.422v8.48h-1.514V.503h1.514V8.48h11.406V.505h1.515v17.867h-1.515v-8.48h-.1zm10.8-7.974h-5.854V.505h13.324v1.413h-5.854v16.554h-1.515V1.918h-.1zM110.43.505h7.369c3.028 0 4.946 1.715 4.946 4.542 0 2.22-1.514 3.835-3.13 4.138 1.918.303 3.534 2.322 3.534 4.442 0 3.028-1.918 4.845-5.148 4.845h-7.47V.504h-.1v.001zm7.167 8.075c2.322 0 3.533-1.413 3.533-3.33 0-1.818-1.211-3.332-3.533-3.332h-5.653V8.58h5.653zm.1 8.479c2.323 0 3.735-1.413 3.735-3.533 0-1.817-1.311-3.533-3.734-3.533h-5.754v7.066h5.754zm13.93-6.258L124.563.504h1.817l6.056 8.782 6.057-8.781h1.817l-7.067 10.296v7.671h-1.514v-7.671h-.1zm26.75-6.561l-5.753 14.232h-1.11L145.76 4.24v14.232h-2.726V.504h3.836l5.249 12.82L157.367.505h3.836v17.867h-2.725V4.24h-.1zm18.27 10.498h-8.781l-1.413 3.734h-2.928L170.59.605h3.33l7.067 17.867h-2.927l-1.413-3.734zm-7.974-2.423h7.268l-3.634-9.489-3.634 9.489zm17.463-7.57v13.727h-2.725V.504h2.725l9.792 13.426V.504h2.725v17.867h-2.624l-9.893-13.627zm22.005 6.257L201.176.606h3.13l5.248 7.975 5.25-7.976h3.129l-6.965 10.398v7.47h-2.726v-7.47h-.1z" fill="#314959" fill-rule="nonzero"/></svg>