<svg width="332" height="56" xmlns="http://www.w3.org/2000/svg"><g fill-rule="nonzero" fill="none"><path d="M85.515 36.254c2.674 0 4.256-1.533 4.256-3.967 0-2.044-1.428-3.968-4.256-3.968H79.01v7.935h6.505zm-.122-9.499c2.614 0 3.983-1.624 3.983-3.697 0-2.044-1.37-3.728-3.983-3.728h-6.384v7.425h6.384zm-8.116-8.988h8.33c3.402 0 5.592 1.953 5.592 5.11 0 2.525-1.732 4.24-3.556 4.6 2.159.33 3.95 2.554 3.95 4.93 0 3.336-2.188 5.411-5.805 5.411h-8.51V17.766v.001zM105.764 19c-4.925 0-8.024 3.696-8.024 8.808 0 5.051 3.1 8.809 8.024 8.809 4.864 0 8.025-3.758 8.025-8.81 0-5.11-3.161-8.808-8.025-8.808v.001zm0-1.563c5.928 0 9.848 4.509 9.848 10.37 0 5.863-3.92 10.373-9.848 10.373-5.958 0-9.849-4.51-9.849-10.372s3.892-10.371 9.85-10.371zm14.387.33h1.764v12.326c0 4.058 2.156 6.524 6.139 6.524 4.012 0 6.14-2.466 6.14-6.524V17.766h1.764v12.356c0 4.96-2.677 8.057-7.904 8.057-5.198 0-7.903-3.126-7.903-8.057V17.766zm31.1-.33c3.344 0 5.776 1.323 7.63 3.427l-1.308.932c-1.428-1.684-3.738-2.797-6.321-2.797-4.774 0-8.45 3.578-8.45 8.809 0 5.171 3.677 8.84 8.45 8.84 2.705 0 4.833-1.324 5.957-2.437v-4.809h-7.661v-1.534h9.394v7.004c-1.795 1.985-4.5 3.338-7.69 3.338-5.684 0-10.275-4.209-10.275-10.402 0-6.192 4.59-10.371 10.275-10.371zm27.906 10.852h-12.858v9.53h-1.733V17.766h1.733v8.96h12.858v-8.96h1.762v20.052h-1.762v-9.53zm13.162-8.958h-6.626v-1.564h15.015v1.564h-6.626v18.488h-1.764V19.33h.001zm21.43 16.926c2.674 0 4.256-1.535 4.256-3.97 0-2.043-1.428-3.967-4.256-3.967h-6.504v7.935h6.504v.002zm-.122-9.5c2.616 0 3.983-1.625 3.983-3.698 0-2.044-1.367-3.728-3.983-3.728h-6.382v7.425h6.384-.002zm-8.114-8.989h8.327c3.405 0 5.593 1.953 5.593 5.11 0 2.525-1.732 4.24-3.556 4.6 2.159.33 3.952 2.554 3.952 4.93 0 3.336-2.188 5.411-5.805 5.411h-8.512V17.766l.001.001zm24.956 11.483l-8.055-11.484h2.097l6.839 9.86 6.839-9.86h2.099l-8.056 11.484v8.568h-1.764V29.25h.001zm31.188-7.365l-6.566 15.933h-1.277l-6.566-15.933v15.933h-3.038V17.766h4.346l5.897 14.4 5.897-14.4h4.347v20.052h-3.04V21.885zm12.525 9.11h8.176l-4.102-10.612-4.074 10.612zm9.058 2.674h-9.94l-1.641 4.15h-3.343l8.054-20.053h3.8l8.055 20.052h-3.343l-1.642-4.15zm11.673-11.242v15.391h-3.04V17.766h3.13l11.036 15.032V17.766h3.038v20.052h-2.947l-11.217-15.391zm25.718 7.004l-7.935-11.665h3.495l5.959 8.96 5.897-8.96h3.525l-7.903 11.665v8.387h-3.038V29.431zM63.44 53.647c0 1.299-1.047 2.353-2.338 2.353H2.341A2.35 2.35 0 0 1 0 53.644V2.384C0 1.084 1.049.03 2.342.03h58.76a2.347 2.347 0 0 1 2.339 2.354v19.912c0 3.016 4.952 5.384 4.952 5.384s-4.952 3.142-4.952 6.237v19.73z" fill="#2B3E49"/><path d="M32.71 26.83c.2-2.833.498-5.561.736-8.354h1.23v-7.167c-.57-.463-1.48-.588-2.456-.644-.177.683-.434 1.278-.639 1.928h.003c-.206-.65-.465-1.246-.641-1.928-.975.056-1.885.18-2.454.644v7.168h1.229c.236 2.792.537 5.52.735 8.353M32.739 8.48c0 .843-.517 1.526-1.158 1.526-.637 0-1.158-.683-1.158-1.526s.521-1.523 1.158-1.523c.641 0 1.158.68 1.158 1.523" fill="#DB326E"/><path d="M42.1 26.856c.197-2.832.5-5.562.737-8.354h1.227v-7.168c-.569-.464-1.479-.588-2.456-.64-.175.68-.434 1.276-.638 1.926h.004c-.206-.65-.464-1.246-.64-1.927-.977.053-1.884.177-2.457.643v7.166h1.23c.237 2.792.538 5.522.736 8.354m2.287-18.35c0 .843-.518 1.526-1.158 1.526-.64 0-1.159-.683-1.159-1.526 0-.84.518-1.523 1.16-1.523.638 0 1.157.683 1.157 1.523" fill="#FFFFFE"/><path d="M42.1 49.231c.197-2.832.5-5.56.737-8.354h1.227V33.71c-.569-.462-1.479-.588-2.456-.641-.175.68-.434 1.277-.638 1.926h.004c-.206-.65-.464-1.246-.64-1.926-.977.055-1.884.18-2.457.641v7.168h1.23c.237 2.793.538 5.522.736 8.354m2.287-18.348c0 .841-.518 1.526-1.158 1.526-.64 0-1.159-.685-1.159-1.526 0-.843.518-1.526 1.16-1.526.638 0 1.157.683 1.157 1.526" fill="#2EAE7D"/><path d="M23.596 49.231c.198-2.832.5-5.56.736-8.354h1.23V33.71c-.57-.462-1.48-.588-2.455-.642-.176.681-.437 1.278-.64 1.927h.002c-.206-.65-.464-1.246-.639-1.927-.977.056-1.886.18-2.455.642v7.168h1.227c.238 2.793.54 5.522.738 8.354m2.286-18.348c0 .841-.518 1.526-1.159 1.526-.64 0-1.158-.685-1.158-1.526 0-.843.518-1.526 1.158-1.526.64 0 1.16.683 1.16 1.526" fill="#FFFFFE"/><path d="M51.492 26.856c.196-2.832.496-5.562.734-8.354h1.229v-7.168c-.569-.464-1.48-.588-2.457-.64-.175.68-.434 1.276-.639 1.926h.003c-.203-.65-.463-1.246-.638-1.927-.977.053-1.887.177-2.456.643v7.166h1.23c.235 2.792.536 5.522.736 8.354m2.286-18.35c0 .843-.518 1.526-1.158 1.526-.64 0-1.159-.683-1.159-1.526 0-.84.52-1.523 1.16-1.523.638 0 1.157.683 1.157 1.523" fill="#DB326E"/><path d="M23.626 8.534c0 .842-.52 1.524-1.159 1.524-.64 0-1.158-.682-1.158-1.524s.518-1.526 1.158-1.526c.639 0 1.16.684 1.16 1.526m-1.696 18.27c-.098-1.703-.2-3.409-.343-5.066-.384-.371-.654-.546-.88-.935-.696-1.197-.454-2.998-.195-4.427.136-.748.458-1.507.44-2.114-.04-1.425-1.289-2.102-.978-3.542h1.711c.328.571.431 1.369.783 1.918h-.002c.354-.549.455-1.347.781-1.918h1.711c.31 1.44-.935 2.117-.977 3.542-.017.607.307 1.366.44 2.114.259 1.428.5 3.23-.196 4.427-.224.387-.496.564-.88.935a173.207 173.207 0 0 0-.341 5.066H21.93" fill="#FFFFFE"/><path d="M32.739 30.883c0 .841-.518 1.526-1.158 1.526-.64 0-1.158-.685-1.158-1.526 0-.843.518-1.526 1.158-1.526.64 0 1.158.683 1.158 1.526m-1.695 18.27c-.098-1.706-.198-3.41-.34-5.067-.384-.368-.656-.547-.881-.934-.696-1.198-.454-2.996-.196-4.428.136-.748.458-1.506.44-2.115-.043-1.424-1.287-2.099-.978-3.542h1.712c.327.574.429 1.372.783 1.919h-.003c.353-.546.457-1.345.783-1.918h1.71c.31 1.442-.937 2.117-.977 3.54-.018.61.306 1.368.44 2.116.259 1.43.501 3.23-.196 4.428-.227.387-.496.566-.88.934a178.381 178.381 0 0 0-.342 5.067h-1.075" fill="#2EAE7D"/><path d="M51.52 30.883c0 .841-.518 1.526-1.16 1.526-.638 0-1.157-.685-1.157-1.526 0-.843.52-1.526 1.158-1.526.64 0 1.159.683 1.159 1.526m-1.695 18.27c-.101-1.706-.198-3.41-.343-5.067-.384-.368-.656-.547-.881-.934-.696-1.198-.454-2.996-.196-4.428.136-.748.46-1.506.441-2.115-.04-1.424-1.288-2.099-.977-3.542h1.71c.327.574.429 1.372.783 1.919h-.003c.356-.546.457-1.345.783-1.918h1.712c.308 1.442-.94 2.117-.978 3.54-.017.61.306 1.368.44 2.116.258 1.43.5 3.23-.195 4.428-.226.387-.497.566-.881.934-.144 1.656-.242 3.361-.343 5.067h-1.072" fill="#FFFFFE"/><path d="M13.345 26.856c.199-2.832.5-5.562.736-8.354h1.23v-7.168c-.569-.464-1.48-.588-2.458-.64-.175.68-.434 1.276-.638 1.926h.003c-.203-.65-.464-1.246-.639-1.927-.975.053-1.885.177-2.455.643v7.166h1.229c.238 2.792.536 5.522.736 8.354m2.287-18.35c0 .843-.518 1.526-1.158 1.526-.641 0-1.16-.683-1.16-1.526 0-.84.519-1.523 1.16-1.523.638 0 1.158.683 1.158 1.523" fill="#2EAE7D"/><path d="M13.376 30.883c0 .841-.518 1.526-1.158 1.526-.641 0-1.16-.685-1.16-1.526 0-.843.519-1.526 1.16-1.526.638 0 1.158.683 1.158 1.526m-1.696 18.27c-.098-1.706-.197-3.41-.343-5.067-.383-.368-.655-.547-.88-.934-.696-1.198-.454-2.996-.196-4.428.135-.748.459-1.506.44-2.115-.039-1.424-1.289-2.099-.977-3.542h1.711c.326.574.431 1.372.783 1.919.353-.546.453-1.345.78-1.918h1.712c.31 1.442-.94 2.117-.979 3.54-.014.61.305 1.368.44 2.116.259 1.43.504 3.23-.195 4.428-.225.387-.497.566-.878.934-.14 1.687-.255 3.376-.344 5.067H11.68" fill="#DB326E"/></g></svg>